<mxfile host="65bd71144e">
    <diagram id="FDxWYQFgoy0NN6bMEqDN" name="Page-1">
        <mxGraphModel dx="500" dy="734" grid="1" gridSize="10" guides="1" tooltips="1" connect="1" arrows="1" fold="1" page="1" pageScale="1" pageWidth="827" pageHeight="1169" math="0" shadow="0">
            <root>
                <mxCell id="0"/>
                <mxCell id="1" parent="0"/>
                <mxCell id="7" style="edgeStyle=none;html=1;exitX=0.5;exitY=1;exitDx=0;exitDy=0;entryX=0;entryY=0;entryDx=0;entryDy=0;fontFamily=Helvetica;fontSize=14;fontColor=#F0F0F0;sketch=1;curved=1;" edge="1" parent="1" source="2" target="4">
                    <mxGeometry relative="1" as="geometry">
                        <Array as="points">
                            <mxPoint x="210" y="258"/>
                        </Array>
                    </mxGeometry>
                </mxCell>
                <mxCell id="2" value="&lt;span style=&quot;line-height: 1&quot;&gt;&lt;font style=&quot;font-size: 20px&quot;&gt;Monokai&lt;/font&gt;&lt;br&gt;&lt;span style=&quot;font-size: 14px&quot;&gt;was created by &lt;/span&gt;&lt;font style=&quot;font-size: 16px&quot;&gt;Wimer Hazenberg&lt;/font&gt;&lt;br&gt;&lt;span style=&quot;font-size: 14px&quot;&gt;in &lt;/span&gt;&lt;font style=&quot;font-size: 16px&quot;&gt;2006&lt;/font&gt;&lt;br&gt;&lt;span style=&quot;font-size: 14px&quot;&gt;for &lt;/span&gt;&lt;font style=&quot;font-size: 16px&quot;&gt;Textmate&lt;/font&gt;&lt;/span&gt;" style="ellipse;whiteSpace=wrap;html=1;sketch=1;rounded=1;" vertex="1" parent="1">
                    <mxGeometry x="40" y="40" width="280" height="120" as="geometry"/>
                </mxCell>
                <mxCell id="8" style="edgeStyle=none;html=1;exitX=0.5;exitY=1;exitDx=0;exitDy=0;entryX=1;entryY=0;entryDx=0;entryDy=0;fontFamily=Helvetica;fontSize=14;fontColor=#F0F0F0;sketch=1;curved=1;" edge="1" parent="1" source="3" target="4">
                    <mxGeometry relative="1" as="geometry">
                        <Array as="points">
                            <mxPoint x="580" y="230"/>
                        </Array>
                    </mxGeometry>
                </mxCell>
                <mxCell id="3" value="&lt;span style=&quot;line-height: 1&quot;&gt;&lt;span style=&quot;font-size: 20px&quot;&gt;One Dark&lt;/span&gt;&lt;br&gt;&lt;span style=&quot;font-size: 14px&quot;&gt;was created by &lt;/span&gt;&lt;span style=&quot;font-size: 16px&quot;&gt;GitHub&lt;/span&gt;&lt;br&gt;&lt;span style=&quot;font-size: 14px&quot;&gt;in &lt;/span&gt;&lt;font style=&quot;font-size: 16px&quot;&gt;2014&lt;/font&gt;&lt;br&gt;&lt;span style=&quot;font-size: 14px&quot;&gt;for &lt;/span&gt;&lt;span style=&quot;font-size: 16px&quot;&gt;Atom&lt;/span&gt;&lt;/span&gt;" style="ellipse;whiteSpace=wrap;html=1;sketch=1;rounded=1;" vertex="1" parent="1">
                    <mxGeometry x="440" y="40" width="280" height="120" as="geometry"/>
                </mxCell>
                <mxCell id="9" style="edgeStyle=none;html=1;exitX=0.5;exitY=1;exitDx=0;exitDy=0;entryX=1;entryY=0;entryDx=0;entryDy=0;fontFamily=Helvetica;fontSize=14;fontColor=#F0F0F0;sketch=1;curved=1;" edge="1" parent="1" source="4" target="5">
                    <mxGeometry relative="1" as="geometry">
                        <Array as="points">
                            <mxPoint x="420" y="430"/>
                        </Array>
                    </mxGeometry>
                </mxCell>
                <mxCell id="4" value="&lt;span style=&quot;line-height: 1&quot;&gt;&lt;font style=&quot;font-size: 20px&quot;&gt;One Monokai&lt;/font&gt;&lt;br&gt;&lt;span style=&quot;font-size: 14px&quot;&gt;for &lt;/span&gt;&lt;span style=&quot;font-size: 16px&quot;&gt;Visual Studio Code&lt;/span&gt;&lt;br&gt;&lt;/span&gt;" style="ellipse;whiteSpace=wrap;html=1;sketch=1;rounded=1;" vertex="1" parent="1">
                    <mxGeometry x="280" y="240" width="280" height="120" as="geometry"/>
                </mxCell>
                <mxCell id="10" style="edgeStyle=none;html=1;exitX=0.5;exitY=1;exitDx=0;exitDy=0;entryX=0;entryY=0;entryDx=0;entryDy=0;fontFamily=Helvetica;fontSize=14;fontColor=#F0F0F0;sketch=1;curved=1;" edge="1" parent="1" source="5" target="6">
                    <mxGeometry relative="1" as="geometry">
                        <Array as="points">
                            <mxPoint x="310" y="648"/>
                        </Array>
                    </mxGeometry>
                </mxCell>
                <mxCell id="5" value="&lt;span style=&quot;line-height: 1&quot;&gt;&lt;font style=&quot;font-size: 20px&quot;&gt;One Monokai&lt;/font&gt;&lt;br&gt;&lt;span style=&quot;font-size: 14px&quot;&gt;was adapted for use by &lt;/span&gt;&lt;span style=&quot;font-size: 16px&quot;&gt;Qt Creator 4+&lt;br&gt;&lt;/span&gt;&lt;font style=&quot;font-size: 14px&quot;&gt;by &lt;/font&gt;&lt;font style=&quot;font-size: 16px&quot;&gt;Jens A. Koch&lt;/font&gt;&lt;br&gt;&lt;span style=&quot;font-size: 14px&quot;&gt;in &lt;/span&gt;&lt;font style=&quot;font-size: 16px&quot;&gt;2021&lt;/font&gt;&lt;br&gt;&lt;/span&gt;" style="ellipse;whiteSpace=wrap;html=1;sketch=1;rounded=1;" vertex="1" parent="1">
                    <mxGeometry x="120" y="440" width="280" height="120" as="geometry"/>
                </mxCell>
                <mxCell id="6" value="&lt;span style=&quot;line-height: 1&quot;&gt;&lt;font style=&quot;font-size: 20px&quot;&gt;Warunai Monokai&lt;/font&gt;&lt;br&gt;&lt;span style=&quot;font-size: 14px&quot;&gt;was rewrote for&amp;nbsp;&lt;/span&gt;&lt;span style=&quot;font-size: 16px&quot;&gt;Qt Creator 7+&lt;br&gt;&lt;/span&gt;&lt;font style=&quot;font-size: 14px&quot;&gt;by &lt;/font&gt;&lt;font style=&quot;font-size: 16px&quot;&gt;Kalynovsky Valentin&lt;/font&gt;&lt;br&gt;&lt;span style=&quot;font-size: 14px&quot;&gt;in &lt;/span&gt;&lt;font style=&quot;font-size: 16px&quot;&gt;2022&lt;/font&gt;&lt;br&gt;&lt;/span&gt;" style="ellipse;whiteSpace=wrap;html=1;sketch=1;rounded=1;" vertex="1" parent="1">
                    <mxGeometry x="430" y="630" width="280" height="120" as="geometry"/>
                </mxCell>
            </root>
        </mxGraphModel>
    </diagram>
</mxfile>